<?xml version="1.0" encoding="UTF-8" standalone="no"?>
<!-- Created with Inkscape (http://www.inkscape.org/) -->

<svg
   width="39.323837mm"
   height="7.7440763mm"
   viewBox="0 0 39.323837 7.7440763"
   version="1.1"
   id="svg8198"
   inkscape:version="1.4.2 (1:1.4.2+202505120737+ebf0e940d0)"
   sodipodi:docname="Lemuria_wordmark_white_color_flat_textaspath.svg"
   inkscape:export-filename="../../png/Lemuria_wordmark_white_color_flat.png"
   inkscape:export-xdpi="1098.0616"
   inkscape:export-ydpi="1098.0616"
   xmlns:inkscape="http://www.inkscape.org/namespaces/inkscape"
   xmlns:sodipodi="http://sodipodi.sourceforge.net/DTD/sodipodi-0.dtd"
   xmlns="http://www.w3.org/2000/svg"
   xmlns:svg="http://www.w3.org/2000/svg"
   xmlns:rdf="http://www.w3.org/1999/02/22-rdf-syntax-ns#"
   xmlns:cc="http://creativecommons.org/ns#"
   xmlns:dc="http://purl.org/dc/elements/1.1/">
  <defs
     id="defs8192" />
  <sodipodi:namedview
     id="base"
     pagecolor="#ffffff"
     bordercolor="#666666"
     borderopacity="1.0"
     inkscape:pageopacity="0.0"
     inkscape:pageshadow="2"
     inkscape:zoom="1.584672"
     inkscape:cx="-49.221543"
     inkscape:cy="62.78902"
     inkscape:document-units="mm"
     inkscape:current-layer="g4826"
     showgrid="false"
     fit-margin-top="0"
     fit-margin-left="0"
     fit-margin-right="0"
     fit-margin-bottom="0"
     inkscape:window-width="1920"
     inkscape:window-height="1032"
     inkscape:window-x="0"
     inkscape:window-y="25"
     inkscape:window-maximized="1"
     inkscape:showpageshadow="0"
     inkscape:pagecheckerboard="0"
     inkscape:deskcolor="#505050" />
  <metadata
     id="metadata8195">
    <rdf:RDF>
      <cc:Work
         rdf:about="">
        <dc:format>image/svg+xml</dc:format>
        <dc:type
           rdf:resource="http://purl.org/dc/dcmitype/StillImage" />
      </cc:Work>
    </rdf:RDF>
  </metadata>
  <g
     inkscape:label="Layer 1"
     inkscape:groupmode="layer"
     id="layer1"
     transform="translate(-10.576176,-8.8898668)">
    <g
       style="enable-background:new"
       id="g4826"
       inkscape:label="Lemuria wordmark"
       transform="matrix(4.1352406,0,0,4.1352406,15.268247,-18.843249)">
      <g
         id="g6234"
         transform="matrix(1.2095014,0,0,1.2095014,-0.93829321,-1.6800633)"
         inkscape:label="Logo">
        <path
           style="font-size:1.37704px;line-height:6.45485px;font-family:'Gentium Plus';-inkscape-font-specification:'Gentium Plus';letter-spacing:0px;word-spacing:0px;fill:#ffffff;stroke-width:0.258194"
           d="m 3.4323847,7.9898292 q -0.00471,0.057825 -0.013448,0.1015298 -0.00874,0.043032 -0.01412,0.062532 H 2.8312745 v -0.028913 q 0.045722,-0.00941 0.071273,-0.020844 0.026223,-0.01143 0.026223,-0.020172 V 7.3772884 q 0,-0.00807 -0.024878,-0.020171 -0.024206,-0.012103 -0.072617,-0.021516 v -0.028912 h 0.3025723 v 0.028912 q -0.04505,0.00941 -0.071273,0.020844 -0.026223,0.011431 -0.026223,0.020844 v 0.6663314 q 0,0.023533 0.025551,0.036981 0.026223,0.012775 0.099513,0.012775 h 0.096151 q 0.041688,0 0.066566,-0.00672 0.024878,-0.0074 0.04236,-0.031602 0.018154,-0.024878 0.036981,-0.077324 z M 4.0355121,7.7793734 Q 4.0234092,7.792821 4.0032377,7.8042515 3.9830663,7.815682 3.96155,7.824423 H 3.5756023 l 0.00134,-0.060514 h 0.3227438 q 0.015465,0 0.020172,-0.00471 0.00538,-0.00538 0.00538,-0.019499 0,-0.018154 -0.00538,-0.04505 -0.00538,-0.026895 -0.020172,-0.053118 -0.01412,-0.026895 -0.041688,-0.044377 -0.027568,-0.018154 -0.071273,-0.018154 -0.053791,0 -0.094134,0.031602 -0.040343,0.031602 -0.062532,0.086065 -0.022189,0.053791 -0.022189,0.123046 0,0.0706 0.023533,0.1317871 0.024206,0.060514 0.068583,0.098168 0.04505,0.036981 0.1069089,0.036981 0.02824,0 0.054463,-0.00538 0.026895,-0.00605 0.061187,-0.025551 0.034292,-0.019499 0.084048,-0.060514 0.00874,0.00471 0.015465,0.013448 0.00672,0.00874 0.00941,0.01412 -0.059842,0.065221 -0.1022022,0.098168 -0.04236,0.032274 -0.080014,0.04236 -0.036981,0.010758 -0.083375,0.010758 -0.068583,0 -0.1277527,-0.038326 -0.05917,-0.038998 -0.095478,-0.108926 -0.035636,-0.069928 -0.035636,-0.1647338 0,-0.090772 0.038998,-0.1714577 0.039671,-0.081358 0.1095984,-0.1290975 0.029585,-0.020844 0.071945,-0.036981 0.04236,-0.016137 0.077996,-0.016137 0.065894,0 0.1102708,0.026223 0.044377,0.025551 0.0706,0.066566 0.026223,0.041015 0.037653,0.088082 0.011431,0.047067 0.011431,0.090099 z M 4.8867488,8.1538906 V 8.1249781 Q 4.98021,8.1007724 4.98021,8.0839628 V 7.7282723 q 0,-0.082703 -0.018154,-0.1109432 -0.017482,-0.02824 -0.057825,-0.02824 -0.044377,0 -0.098168,0.047739 -0.053791,0.047739 -0.1048917,0.1317871 v 0.3153475 q 0,0.00874 0.020844,0.018154 0.020844,0.00941 0.073962,0.022861 v 0.028913 H 4.5068525 v -0.028913 q 0.093461,-0.024206 0.093461,-0.041015 V 7.7282723 q 0,-0.082703 -0.017482,-0.1109432 -0.01681,-0.02824 -0.058497,-0.02824 -0.04505,0 -0.095478,0.047739 -0.050429,0.047067 -0.1075812,0.1317871 v 0.3153475 q 0,0.010086 0.025551,0.020844 0.02555,0.010758 0.068583,0.020171 v 0.028913 H 4.1262838 v -0.028913 q 0.044377,-0.01143 0.069255,-0.020844 0.024878,-0.00941 0.024878,-0.020172 V 7.6758264 q 0,-0.035636 -0.00538,-0.051774 -0.00538,-0.016809 -0.025551,-0.023533 -0.019499,-0.00672 -0.063204,-0.01143 v -0.026895 q 0.051101,-0.00807 0.088082,-0.022189 0.036981,-0.01412 0.07329,-0.031602 l 0.023533,0.023533 0.0074,0.1539757 q 0.059842,-0.089427 0.1223737,-0.1331318 0.062532,-0.044377 0.1109432,-0.044377 0.063876,0 0.1062364,0.034292 0.043033,0.033619 0.043033,0.1237185 v 0.01412 q 0.05648,-0.084048 0.1190117,-0.1277527 0.062532,-0.044377 0.1116156,-0.044377 0.063876,0 0.1062364,0.035636 0.043032,0.035636 0.043032,0.1116155 v 0.4283079 q 0,0.00874 0.020844,0.018154 0.020844,0.00941 0.073962,0.022861 v 0.028913 z m 1.027401,-0.055135 q -0.049084,0.032274 -0.090099,0.053791 -0.040343,0.021516 -0.057152,0.021516 -0.023533,0 -0.038326,-0.03093 -0.014793,-0.031602 -0.018827,-0.1008574 -0.055808,0.055808 -0.099513,0.084048 -0.043033,0.02824 -0.077324,0.037653 -0.034292,0.010086 -0.063204,0.010086 -0.041688,0 -0.078669,-0.01681 -0.036309,-0.01681 -0.05917,-0.061859 -0.022189,-0.04505 -0.022189,-0.1290975 V 7.6758264 q 0,-0.043032 -0.00471,-0.061187 -0.00403,-0.018827 -0.022189,-0.024878 -0.018154,-0.00605 -0.059842,-0.010086 v -0.026895 q 0.048411,-0.00605 0.086065,-0.016137 0.038326,-0.010758 0.082703,-0.02824 l 0.018827,0.026223 v 0.3946887 q 0,0.094134 0.026895,0.1290975 0.027568,0.034964 0.075979,0.034964 0.043705,0 0.090099,-0.026223 0.047067,-0.026223 0.1062364,-0.089427 V 7.6758264 q 0,-0.040343 -0.00672,-0.059842 -0.00605,-0.020171 -0.026223,-0.026895 -0.019499,-0.0074 -0.061187,-0.00941 v -0.026895 q 0.048412,-0.00605 0.092789,-0.018827 0.04505,-0.012775 0.082031,-0.025551 l 0.020172,0.026223 v 0.4484794 q 0,0.041015 0.00336,0.067911 0.00336,0.026223 0.012103,0.032947 0.0074,0.00538 0.026895,0.00269 0.020172,-0.00336 0.054463,-0.018154 z M 6.4426427,7.5332813 q 0.00874,0.00471 0.00538,0.036309 -0.00336,0.03093 -0.013448,0.068583 -0.00941,0.036981 -0.020844,0.061187 h -0.028912 q -0.00807,-0.054463 -0.028913,-0.075307 -0.020172,-0.021516 -0.045722,-0.021516 -0.029585,0 -0.075307,0.051774 -0.045722,0.051773 -0.077996,0.1660785 v 0.2635741 q 0,0.010086 0.024878,0.020844 0.02555,0.010758 0.088755,0.020171 v 0.028913 H 5.961889 v -0.028913 q 0.044377,-0.010086 0.069255,-0.020171 0.024878,-0.010086 0.024878,-0.020844 V 7.692636 q 0,-0.044377 -0.00471,-0.061859 -0.00471,-0.017482 -0.010758,-0.023533 -0.00874,-0.00941 -0.024878,-0.012775 -0.016137,-0.00336 -0.053791,-0.00538 v -0.026895 q 0.043705,-0.010758 0.086065,-0.022861 0.04236,-0.012103 0.075307,-0.03093 l 0.023533,0.023533 0.00874,0.1526309 q 0.036309,-0.074635 0.08472,-0.1250632 0.048412,-0.051101 0.1062365,-0.051101 0.021516,0 0.046394,0.00538 0.02555,0.00538 0.049756,0.019499 z M 6.7324396,7.3060159 q 0,0.037653 -0.022189,0.065221 -0.022189,0.026895 -0.055808,0.026895 -0.05648,0 -0.05648,-0.064549 0,-0.038326 0.022861,-0.064549 0.022861,-0.026895 0.054463,-0.026895 0.057152,0 0.057152,0.063876 z M 6.5172771,8.1538906 v -0.028913 q 0.094134,-0.018827 0.094134,-0.041015 V 7.7033941 q 0,-0.046394 -0.00403,-0.069255 -0.00403,-0.022861 -0.023533,-0.031602 -0.019499,-0.00941 -0.066566,-0.013448 v -0.026895 q 0.04236,-0.00807 0.090099,-0.022189 0.047739,-0.014792 0.082031,-0.031602 h 0.022861 v 0.5755597 q 0,0.00807 0.022189,0.020172 0.022861,0.01143 0.071945,0.020844 v 0.028913 z m 0.948732,-0.055135 q -0.057152,0.038998 -0.094806,0.057153 -0.036981,0.018154 -0.055808,0.018154 -0.023533,0 -0.038326,-0.034964 -0.014792,-0.035636 -0.014792,-0.095478 V 7.6818779 q 0,-0.045722 -0.023533,-0.076652 -0.023533,-0.031602 -0.089427,-0.029585 -0.043032,6.724e-4 -0.078669,0.026223 -0.034964,0.024878 -0.03093,0.065221 0.00134,0.00807 -0.022861,0.018154 -0.024206,0.010086 -0.052446,0.01681 -0.027568,0.00605 -0.038998,0.00336 l -0.00941,-0.026223 q 0.020844,-0.04505 0.068583,-0.083375 0.047739,-0.038998 0.1075812,-0.063204 0.060515,-0.024206 0.1169947,-0.024206 0.073962,0 0.1136327,0.038998 0.040343,0.038326 0.040343,0.1075813 v 0.3792239 q 0,0.052446 0.026895,0.052446 0.00941,0 0.024206,-0.00336 0.014792,-0.00403 0.041688,-0.014792 z M 7.2690009,7.8257678 q -0.077324,0.012103 -0.1203565,0.024206 -0.043032,0.012103 -0.065221,0.02555 -0.022189,0.012775 -0.036981,0.02824 -0.01681,0.018154 -0.02824,0.041688 -0.010758,0.022861 -0.010758,0.054463 0,0.035636 0.012775,0.054463 0.013448,0.018827 0.03093,0.02555 0.017482,0.00672 0.028912,0.00672 0.041688,0 0.088755,-0.022189 0.047067,-0.022189 0.100185,-0.069255 l 0.00538,0.049756 q -0.063204,0.067911 -0.1257356,0.09884 -0.062532,0.030257 -0.1082536,0.030257 -0.032274,0 -0.065221,-0.014792 -0.032947,-0.01412 -0.055808,-0.046394 -0.022189,-0.032274 -0.022189,-0.084048 0,-0.051774 0.017482,-0.085393 0.018154,-0.034292 0.043032,-0.05917 0.022189,-0.022189 0.053791,-0.041015 0.031602,-0.018827 0.091444,-0.035636 0.060514,-0.01681 0.1660785,-0.032274 z"
           id="text4812"
           inkscape:label="Lemuria"
           aria-label="Lemuria" />
      </g>
      <g
         inkscape:label="Lemurian flag"
         id="g4820"
         transform="matrix(0.12484685,0,0,0.12484685,-1.2561345,7.4068413)">
        <path
           id="rect4814"
           style="opacity:1;fill:#008ec4;stroke-width:0.228424;stroke-linecap:round;stroke-linejoin:round;paint-order:stroke fill markers"
           inkscape:label="Background"
           d="M 0.97302938,-5.6093616 H 25.973029 v 15 H 0.97302938 Z" />
        <g
           inkscape:label="Triforce"
           id="g4818"
           transform="matrix(0.01034189,0,0,0.01034189,20.982099,-5.6206146)">
          <path
             style="fill:#ffffff;stroke-width:1.73910284"
             id="path4816"
             d="m -1208.0478,1141.9269 c 0.828,-1.4129 54.9788,-95.1432 120.3351,-208.28981 65.3564,-113.14654 119.13486,-205.61926 119.50772,-205.49493 0.37304,0.12434 54.70435,93.85468 120.73652,208.2897 l 120.05834,208.06364 h -241.07173 -241.07165 z m 484.49995,0 c 0.82809,-1.4129 54.9722,-95.1316 120.32028,-208.26397 65.34807,-113.13234 119.07569,-205.69515 119.39471,-205.69515 0.31902,0 54.04666,92.56281 119.3947,205.69515 65.34808,113.13237 119.49224,206.85107 120.32025,208.26397 l 1.50566,2.5686 H -483.83286 -725.05343 Z M -966.75213,724.51536 c 0,-0.51966 239.43475,-415.71363 240.14269,-416.42155 0.38831,-0.38832 52.8273,89.65846 120.74353,207.33737 66.03142,114.41311 120.17567,208.32786 120.32058,208.69946 0.14538,0.37303 -107.55772,0.67564 -240.47167,0.67564 -132.40433,0 -240.73513,-0.13096 -240.73513,-0.29092 z"
             inkscape:connector-curvature="0"
             inkscape:label="Triforce" />
        </g>
      </g>
    </g>
  </g>
</svg>
